<svg width="407" height="113" viewBox="0 0 407 113" fill="none" xmlns="http://www.w3.org/2000/svg">
<g clip-path="url(#clip0_350_458)">
<path d="M180.687 69.06C177.087 76.8 170.067 81.3 161.337 81.3C148.557 81.3 139.647 71.85 139.647 57.72C139.647 43.59 148.467 34.5 161.607 34.5C172.497 34.5 179.697 40.89 179.697 49.71C179.697 50.79 179.517 51.87 179.337 53.04H171.327C172.497 46.47 168.807 41.97 161.787 41.97C153.417 41.97 147.927 48.18 147.927 57.81C147.927 67.44 153.597 73.74 161.697 73.74C167.547 73.74 172.137 70.5 174.567 65.1L180.687 69.06Z" fill="#0F2830"/>
<path d="M225.567 71.67V51.06C225.567 40.53 218.457 34.5 206.847 34.5C195.237 34.5 188.397 40.17 188.397 48.36C188.397 49.26 188.487 50.25 188.667 51.24H196.767C195.597 45.39 199.377 41.52 206.667 41.52C213.507 41.52 217.197 44.94 217.197 50.7V50.79C208.197 55.92 186.687 51.42 186.687 67.53C186.687 76.17 193.077 81.3 202.077 81.3C208.287 81.3 213.507 78.96 217.827 74.37H218.727C218.907 78.33 221.607 80.94 225.387 80.94C226.647 80.94 228.537 80.58 230.247 79.95V74.1C229.527 74.37 228.807 74.46 228.267 74.46C226.557 74.46 225.567 73.47 225.567 71.67ZM217.197 63.75C217.197 69.51 210.357 74.37 203.427 74.37C198.477 74.37 195.147 71.85 195.147 67.44C195.147 58.44 209.007 61.59 217.197 57.27V63.75Z" fill="#0F2830"/>
<path d="M287.997 35.7601H279.627C280.002 39.9076 278.982 44.5651 276.312 47.8801C274.985 49.5601 273.35 51.0151 271.4 52.5001C268.7 54.7501 265.25 55.7326 262.182 57.4501C260.81 56.0551 259.422 54.8026 258.155 53.7301C256.047 52.0126 253.662 50.4301 251.195 49.2076C249.11 48.1201 246.71 47.3026 244.992 46.0501C241.872 43.5826 240.8 39.5476 240.8 35.5801L233 35.6551L232.962 43.4176C232.992 48.3826 233.067 61.5676 233.097 66.7051H240.702C240.717 63.6151 240.755 57.4951 240.785 52.0651C241.962 52.9201 243.282 53.6251 244.73 54.1426C248.12 55.5151 251.045 56.8876 253.917 59.1301C254.652 59.7076 255.59 60.4876 256.58 61.3876C253.662 63.5926 250.88 66.1351 249.83 69.9301C248.907 73.4851 250.85 77.2576 253.595 79.4101C258.927 83.8876 267.252 81.1351 269.39 74.8951C270.65 70.7551 269.157 66.5701 266.652 62.8276C267.2 62.6026 267.702 62.3926 268.152 62.2126C269.187 61.8076 270.492 61.0801 271.835 60.3901C278.097 56.9551 283.97 52.0426 286.332 44.9701C287.307 42.1051 288.11 38.7376 287.99 35.7601H287.997ZM262.632 73.5751C261.477 75.5326 258.92 76.1776 257.375 74.1676C256.505 73.0351 256.175 72.4201 256.692 70.1776C257.067 68.5576 258.702 67.0801 260.705 65.8051C262.685 68.4376 263.907 71.2801 262.625 73.5676L262.632 73.5751Z" fill="#0F2830"/>
<path d="M321.837 79.86C320.037 80.58 318.147 80.94 316.527 80.94C312.567 80.94 310.137 78.69 309.597 74.82H308.697C305.907 78.6 300.957 80.94 295.197 80.94C285.747 80.94 279.627 74.64 279.627 64.92V35.76H287.997V63.66C287.997 69.78 291.597 73.47 297.357 73.47C304.017 73.47 308.787 68.61 308.787 61.86V35.76H317.157V71.58C317.157 73.38 318.147 74.37 319.857 74.37C320.397 74.37 321.117 74.28 321.837 74.01V79.86Z" fill="#0F2830"/>
<path d="M342.147 79.8601C339.897 80.5801 337.557 80.9401 335.577 80.9401C329.817 80.9401 326.577 77.7901 326.577 72.2101V17.8501H334.947V69.6001C334.947 72.4801 336.837 74.1001 339.897 74.1001C340.527 74.1001 341.337 74.0101 342.147 73.8301V79.8601Z" fill="#0F2830"/>
<path d="M399.702 34.4326C398.667 37.4401 396.087 42.9976 390.417 46.4701C389.817 46.8376 389.195 47.1601 388.557 47.4676C386.397 42.2326 382.535 38.3251 377.42 36.2326C375.672 35.3701 373.872 34.8301 372.08 34.7026C366.822 34.3126 361.707 36.1876 360.477 41.6551C359.682 45.2026 359.825 49.2076 364.377 52.6651C369.125 56.2651 375.612 57.7126 382.107 57.0076C382.115 57.3076 382.13 57.6076 382.13 57.9151C382.13 62.3251 381.027 65.9626 379.032 68.6326C377.787 70.1101 376.295 71.3701 374.6 72.2851C372.747 73.1776 370.602 73.6651 368.187 73.6651C359.547 73.6651 354.327 67.8151 354.327 58.0051C354.327 53.9176 355.227 50.5051 356.877 47.8876L354.597 46.5151L350.03 43.7476C350.03 43.7476 350.03 43.7476 350.03 43.7551L349.88 43.6501C347.36 47.4526 345.965 52.2976 345.965 57.9076C345.965 71.6551 354.312 80.7976 367.115 81.2851C367.587 81.3226 368.067 81.3451 368.555 81.3451C368.81 81.3451 369.072 81.3451 369.335 81.3301C370.167 81.3001 370.992 81.2101 371.81 81.0751C382.385 79.6426 389.472 71.8501 390.402 60.5176C390.552 59.1226 390.575 57.7126 390.462 56.3026C390.44 55.8301 390.402 55.3651 390.357 54.9001C391.73 54.3301 393.065 53.6551 394.34 52.8751C402.012 48.1801 405.44 40.8376 406.797 36.8851L399.702 34.4476V34.4326ZM368.907 46.6801C368.907 46.6801 368.87 46.6501 368.847 46.6351C367.04 45.2551 367.895 42.2926 370.167 42.1501C370.557 42.1276 370.962 42.1276 371.352 42.1651C373.88 42.4051 376.857 44.3776 379.137 47.3026C379.7 48.0226 380.202 48.7801 380.652 49.5676C376.235 49.9126 371.907 48.9601 368.9 46.6801H368.907Z" fill="#0F2830"/>
<path d="M177.718 105.503C177.718 101.55 180.755 98.7151 184.843 98.7151C187.115 98.7151 189.005 99.5401 190.243 101.04L188.293 102.84C187.408 101.828 186.305 101.303 184.993 101.303C182.533 101.303 180.793 103.028 180.793 105.503C180.793 107.978 182.533 109.703 184.993 109.703C186.305 109.703 187.408 109.178 188.293 108.15L190.243 109.95C189.005 111.465 187.115 112.29 184.828 112.29C180.763 112.29 177.725 109.463 177.725 105.503H177.718Z" fill="#FF6A39"/>
<path d="M204.32 109.628V112.065H194.157V98.9401H204.072V101.378H197.172V104.228H203.262V106.59H197.172V109.628H204.312H204.32Z" fill="#FF6A39"/>
<path d="M220.655 98.9475V112.073H218.165L211.625 104.108V112.073H208.625V98.9475H211.138L217.662 106.913V98.9475H220.662H220.655Z" fill="#FF6A39"/>
<path d="M228.365 101.423H224.165V98.9475H235.603V101.423H231.403V112.073H228.365V101.423Z" fill="#FF6A39"/>
<path d="M247.468 112.065L244.94 108.413H242.15V112.065H239.113V98.9401H244.79C248.293 98.9401 250.49 100.755 250.49 103.703C250.49 105.668 249.493 107.115 247.79 107.843L250.73 112.058H247.468V112.065ZM244.618 101.415H242.143V105.99H244.618C246.47 105.99 247.408 105.128 247.408 103.703C247.408 102.278 246.47 101.415 244.618 101.415Z" fill="#FF6A39"/>
<path d="M253.94 105.503C253.94 101.603 256.977 98.7151 261.117 98.7151C265.257 98.7151 268.295 101.58 268.295 105.503C268.295 109.425 265.242 112.29 261.117 112.29C256.992 112.29 253.94 109.403 253.94 105.503ZM265.227 105.503C265.227 103.013 263.465 101.303 261.125 101.303C258.785 101.303 257.022 103.005 257.022 105.503C257.022 108 258.785 109.703 261.125 109.703C263.465 109.703 265.227 108 265.227 105.503Z" fill="#FF6A39"/>
<path d="M278.818 105.503C278.818 101.55 281.855 98.7151 285.943 98.7151C288.215 98.7151 290.105 99.5401 291.343 101.04L289.393 102.84C288.508 101.828 287.405 101.303 286.093 101.303C283.633 101.303 281.893 103.028 281.893 105.503C281.893 107.978 283.633 109.703 286.093 109.703C287.405 109.703 288.508 109.178 289.393 108.15L291.343 109.95C290.105 111.465 288.215 112.29 285.928 112.29C281.863 112.29 278.825 109.463 278.825 105.503H278.818Z" fill="#FF6A39"/>
<path d="M303.643 109.253H297.553L296.39 112.065H293.278L299.128 98.9401H302.128L307.993 112.065H304.805L303.643 109.253ZM302.683 106.95L300.605 101.925L298.52 106.95H302.683Z" fill="#FF6A39"/>
<path d="M323.27 98.9475V112.073H320.78L314.24 104.108V112.073H311.24V98.9475H313.752L320.277 106.913V98.9475H323.277H323.27Z" fill="#FF6A39"/>
<path d="M328.265 98.9475H331.303V112.073H328.265V98.9475Z" fill="#FF6A39"/>
<path d="M348.32 98.9475V112.073H345.83L339.29 104.108V112.073H336.29V98.9475H338.803L345.328 106.913V98.9475H348.328H348.32Z" fill="#FF6A39"/>
<path d="M352.49 105.503C352.49 101.603 355.527 98.7151 359.667 98.7151C363.807 98.7151 366.845 101.58 366.845 105.503C366.845 109.425 363.792 112.29 359.667 112.29C355.542 112.29 352.49 109.403 352.49 105.503ZM363.777 105.503C363.777 103.013 362.015 101.303 359.675 101.303C357.335 101.303 355.572 103.005 355.572 105.503C355.572 108 357.335 109.703 359.675 109.703C362.015 109.703 363.777 108 363.777 105.503Z" fill="#FF6A39"/>
<path d="M98.2624 15.2624C81.6799 0.0673976 57.3199 -4.2076 36.2074 4.3649C19.3099 11.2274 10.5724 24.5324 7.5949 29.9324C-4.0301 51.0524 0.117399 75.3224 9.3799 89.9999C14.3374 97.8599 24.4624 107.662 30.0799 108.532C31.7824 108.795 32.9149 108.202 33.5674 107.655C36.3574 105.292 34.4749 102.24 32.2924 98.6924C30.2149 95.3249 27.0799 90.2399 24.8299 83.4749C19.2274 66.5999 21.9649 53.5124 25.2499 45.5024C29.3374 35.5274 36.0349 28.7024 41.7799 24.3524C43.2199 27.0599 44.3074 29.4374 45.1099 31.5074C42.0649 32.5574 38.7124 34.4099 37.4899 38.1599C36.3649 41.6324 37.3324 46.4549 40.9099 48.5174C44.7199 50.7149 49.3999 48.7274 51.4999 46.6049C53.2399 44.8499 54.5224 41.8199 53.6899 36.5774C57.4099 36.1724 63.2074 36.2099 66.4624 39.6374C67.5799 40.8149 67.9699 41.7524 68.5624 43.1699C69.2974 44.9324 70.2124 47.1224 72.6574 49.9124C76.3399 54.1124 82.0849 56.4824 89.7724 56.9774C89.9599 58.3799 90.6274 59.6624 91.6924 60.6149C92.7874 61.5899 94.1749 62.1149 95.6299 62.1149C95.7424 62.1149 95.8549 62.1149 95.9674 62.1074C96.0124 62.1074 96.0499 62.0999 96.0949 62.0924C96.0874 62.2574 96.0799 62.4149 96.0649 62.5874C95.6299 66.9074 92.4124 70.3049 89.4199 71.7449C88.8724 72.0074 88.3999 72.1799 87.9274 72.2774C84.5224 72.9974 82.1374 72.6224 79.6099 72.2174C77.9074 71.9474 76.1449 71.6624 74.1949 71.7749C66.8299 72.1649 59.4424 78.4949 57.7249 85.8899C55.7674 94.3349 61.2799 102.675 67.7449 106.545C70.9399 108.457 74.5549 109.417 78.5674 109.417C81.0124 109.417 83.5999 109.065 86.3299 108.345C104.915 103.5 113.78 81.6524 116.082 69.5099C119.87 49.5749 113.037 28.7849 98.2624 15.2549V15.2624ZM46.6624 41.7974C46.0549 42.4049 44.6824 42.7724 44.3224 42.6074C44.0299 42.3974 43.6849 41.1824 43.9774 40.2674C44.2849 39.3149 45.5674 38.6099 46.9774 38.0924C47.2774 40.1699 47.0599 41.3924 46.6549 41.7974H46.6624ZM109.37 68.2424C106.767 81.9449 97.9024 98.2799 84.5299 101.767C82.5499 102.285 76.5274 103.86 71.2474 100.695C67.0099 98.1524 63.1549 92.6474 64.3624 87.4349C65.5099 82.4774 70.6549 78.7949 74.5474 78.5924C74.7049 78.5849 74.8699 78.5774 75.0274 78.5774C76.1149 78.5774 77.2474 78.7574 78.5299 78.9599C81.2749 79.3949 84.6949 79.9349 89.3374 78.9599C90.3424 78.7499 91.3399 78.3974 92.3749 77.8949C96.7324 75.7874 102.095 70.6949 102.845 63.2774C103.377 58.0049 101.3 53.7974 100.032 51.7874C99.3499 50.6774 98.1124 50.0399 96.7849 50.1224C87.4849 50.7824 81.0874 49.1999 77.7799 45.4199C76.0699 43.4699 75.4774 42.0449 74.8474 40.5374C74.1574 38.8874 73.3774 37.0274 71.3974 34.9424C65.7724 29.0249 56.9749 29.1824 51.8374 29.9174C50.5699 26.5124 48.6499 22.4924 45.8899 17.7599C45.4024 16.9274 44.5924 16.3199 43.6474 16.1024C42.7099 15.8849 41.7049 16.0649 40.9024 16.5974C33.8899 21.2474 24.3724 29.5874 18.9124 42.9224C15.1924 51.9974 12.0724 66.7799 18.3349 85.6349C19.5874 89.4074 21.0649 92.6624 22.5049 95.4374C20.0374 93.0299 17.4199 89.9849 15.1324 86.3699C6.9349 73.3799 3.2674 51.9149 13.5574 33.2324C16.1824 28.4699 23.8849 16.7399 38.7574 10.7024C57.1549 3.2324 79.2049 7.0874 93.6349 20.3024C109.227 34.5824 111.98 54.4349 109.355 68.2499L109.37 68.2424Z" fill="#FF6A39"/>
</g>
<defs>
<clipPath id="clip0_350_458">
<rect width="406.297" height="112.29" fill="white" transform="translate(0.5)"/>
</clipPath>
</defs>
</svg>
