<svg width="407" height="113" viewBox="0 0 407 113" fill="none" xmlns="http://www.w3.org/2000/svg">
<g clip-path="url(#clip0_350_459)">
<path d="M180.187 69.06C176.587 76.8 169.567 81.3 160.837 81.3C148.057 81.3 139.147 71.85 139.147 57.72C139.147 43.59 147.967 34.5 161.107 34.5C171.997 34.5 179.197 40.89 179.197 49.71C179.197 50.79 179.017 51.87 178.837 53.04H170.827C171.997 46.47 168.307 41.97 161.287 41.97C152.917 41.97 147.427 48.18 147.427 57.81C147.427 67.44 153.097 73.74 161.197 73.74C167.047 73.74 171.637 70.5 174.067 65.1L180.187 69.06Z" fill="#FFF4E0"/>
<path d="M225.067 71.67V51.06C225.067 40.53 217.957 34.5 206.347 34.5C194.737 34.5 187.897 40.17 187.897 48.36C187.897 49.26 187.987 50.25 188.167 51.24H196.267C195.097 45.39 198.877 41.52 206.167 41.52C213.007 41.52 216.697 44.94 216.697 50.7V50.79C207.697 55.92 186.187 51.42 186.187 67.53C186.187 76.17 192.577 81.3 201.577 81.3C207.787 81.3 213.007 78.96 217.327 74.37H218.227C218.407 78.33 221.107 80.94 224.887 80.94C226.147 80.94 228.037 80.58 229.747 79.95V74.1C229.027 74.37 228.307 74.46 227.767 74.46C226.057 74.46 225.067 73.47 225.067 71.67ZM216.697 63.75C216.697 69.51 209.857 74.37 202.927 74.37C197.977 74.37 194.647 71.85 194.647 67.44C194.647 58.44 208.507 61.59 216.697 57.27V63.75Z" fill="#FFF4E0"/>
<path d="M287.497 35.7601H279.127C279.502 39.9076 278.482 44.5651 275.812 47.8801C274.485 49.5601 272.85 51.0151 270.9 52.5001C268.2 54.7501 264.75 55.7326 261.682 57.4501C260.31 56.0551 258.922 54.8026 257.655 53.7301C255.547 52.0126 253.162 50.4301 250.695 49.2076C248.61 48.1201 246.21 47.3026 244.492 46.0501C241.372 43.5826 240.3 39.5476 240.3 35.5801L232.5 35.6551L232.462 43.4176C232.492 48.3826 232.567 61.5676 232.597 66.7051H240.202C240.217 63.6151 240.255 57.4951 240.285 52.0651C241.462 52.9201 242.782 53.6251 244.23 54.1426C247.62 55.5151 250.545 56.8876 253.417 59.1301C254.152 59.7076 255.09 60.4876 256.08 61.3876C253.162 63.5926 250.38 66.1351 249.33 69.9301C248.407 73.4851 250.35 77.2576 253.095 79.4101C258.427 83.8876 266.752 81.1351 268.89 74.8951C270.15 70.7551 268.657 66.5701 266.152 62.8276C266.7 62.6026 267.202 62.3926 267.652 62.2126C268.687 61.8076 269.992 61.0801 271.335 60.3901C277.597 56.9551 283.47 52.0426 285.832 44.9701C286.807 42.1051 287.61 38.7376 287.49 35.7601H287.497ZM262.132 73.5751C260.977 75.5326 258.42 76.1776 256.875 74.1676C256.005 73.0351 255.675 72.4201 256.192 70.1776C256.567 68.5576 258.202 67.0801 260.205 65.8051C262.185 68.4376 263.407 71.2801 262.125 73.5676L262.132 73.5751Z" fill="#FFF4E0"/>
<path d="M321.337 79.86C319.537 80.58 317.647 80.94 316.027 80.94C312.067 80.94 309.637 78.69 309.097 74.82H308.197C305.407 78.6 300.457 80.94 294.697 80.94C285.247 80.94 279.127 74.64 279.127 64.92V35.76H287.497V63.66C287.497 69.78 291.097 73.47 296.857 73.47C303.517 73.47 308.287 68.61 308.287 61.86V35.76H316.657V71.58C316.657 73.38 317.647 74.37 319.357 74.37C319.897 74.37 320.617 74.28 321.337 74.01V79.86Z" fill="#FFF4E0"/>
<path d="M341.647 79.8601C339.397 80.5801 337.057 80.9401 335.077 80.9401C329.317 80.9401 326.077 77.7901 326.077 72.2101V17.8501H334.447V69.6001C334.447 72.4801 336.337 74.1001 339.397 74.1001C340.027 74.1001 340.837 74.0101 341.647 73.8301V79.8601Z" fill="#FFF4E0"/>
<path d="M399.202 34.4326C398.167 37.4401 395.587 42.9976 389.917 46.4701C389.317 46.8376 388.695 47.1601 388.057 47.4676C385.897 42.2326 382.035 38.3251 376.92 36.2326C375.172 35.3701 373.372 34.8301 371.58 34.7026C366.322 34.3126 361.207 36.1876 359.977 41.6551C359.182 45.2026 359.325 49.2076 363.877 52.6651C368.625 56.2651 375.112 57.7126 381.607 57.0076C381.615 57.3076 381.63 57.6076 381.63 57.9151C381.63 62.3251 380.527 65.9626 378.532 68.6326C377.287 70.1101 375.795 71.3701 374.1 72.2851C372.247 73.1776 370.102 73.6651 367.687 73.6651C359.047 73.6651 353.827 67.8151 353.827 58.0051C353.827 53.9176 354.727 50.5051 356.377 47.8876L354.097 46.5151L349.53 43.7476C349.53 43.7476 349.53 43.7476 349.53 43.7551L349.38 43.6501C346.86 47.4526 345.465 52.2976 345.465 57.9076C345.465 71.6551 353.812 80.7976 366.615 81.2851C367.087 81.3226 367.567 81.3451 368.055 81.3451C368.31 81.3451 368.572 81.3451 368.835 81.3301C369.667 81.3001 370.492 81.2101 371.31 81.0751C381.885 79.6426 388.972 71.8501 389.902 60.5176C390.052 59.1226 390.075 57.7126 389.962 56.3026C389.94 55.8301 389.902 55.3651 389.857 54.9001C391.23 54.3301 392.565 53.6551 393.84 52.8751C401.512 48.1801 404.94 40.8376 406.297 36.8851L399.202 34.4476V34.4326ZM368.407 46.6801C368.407 46.6801 368.37 46.6501 368.347 46.6351C366.54 45.2551 367.395 42.2926 369.667 42.1501C370.057 42.1276 370.462 42.1276 370.852 42.1651C373.38 42.4051 376.357 44.3776 378.637 47.3026C379.2 48.0226 379.702 48.7801 380.152 49.5676C375.735 49.9126 371.407 48.9601 368.4 46.6801H368.407Z" fill="#FFF4E0"/>
<path d="M177.218 105.503C177.218 101.55 180.255 98.7151 184.343 98.7151C186.615 98.7151 188.505 99.5401 189.743 101.04L187.793 102.84C186.908 101.828 185.805 101.303 184.493 101.303C182.033 101.303 180.293 103.028 180.293 105.503C180.293 107.978 182.033 109.703 184.493 109.703C185.805 109.703 186.908 109.178 187.793 108.15L189.743 109.95C188.505 111.465 186.615 112.29 184.328 112.29C180.263 112.29 177.225 109.463 177.225 105.503H177.218Z" fill="#FF6A39"/>
<path d="M203.82 109.628V112.065H193.657V98.9401H203.572V101.378H196.672V104.228H202.762V106.59H196.672V109.628H203.812H203.82Z" fill="#FF6A39"/>
<path d="M220.155 98.9475V112.073H217.665L211.125 104.108V112.073H208.125V98.9475H210.638L217.162 106.913V98.9475H220.162H220.155Z" fill="#FF6A39"/>
<path d="M227.865 101.423H223.665V98.9475H235.103V101.423H230.903V112.073H227.865V101.423Z" fill="#FF6A39"/>
<path d="M246.968 112.065L244.44 108.413H241.65V112.065H238.613V98.9401H244.29C247.793 98.9401 249.99 100.755 249.99 103.703C249.99 105.668 248.993 107.115 247.29 107.843L250.23 112.058H246.968V112.065ZM244.118 101.415H241.643V105.99H244.118C245.97 105.99 246.908 105.128 246.908 103.703C246.908 102.278 245.97 101.415 244.118 101.415Z" fill="#FF6A39"/>
<path d="M253.44 105.503C253.44 101.603 256.478 98.7151 260.618 98.7151C264.758 98.7151 267.795 101.58 267.795 105.503C267.795 109.425 264.743 112.29 260.618 112.29C256.493 112.29 253.44 109.403 253.44 105.503ZM264.728 105.503C264.728 103.013 262.965 101.303 260.625 101.303C258.285 101.303 256.523 103.005 256.523 105.503C256.523 108 258.285 109.703 260.625 109.703C262.965 109.703 264.728 108 264.728 105.503Z" fill="#FF6A39"/>
<path d="M278.318 105.503C278.318 101.55 281.355 98.7151 285.443 98.7151C287.715 98.7151 289.605 99.5401 290.843 101.04L288.893 102.84C288.008 101.828 286.905 101.303 285.593 101.303C283.133 101.303 281.393 103.028 281.393 105.503C281.393 107.978 283.133 109.703 285.593 109.703C286.905 109.703 288.008 109.178 288.893 108.15L290.843 109.95C289.605 111.465 287.715 112.29 285.428 112.29C281.363 112.29 278.325 109.463 278.325 105.503H278.318Z" fill="#FF6A39"/>
<path d="M303.143 109.253H297.053L295.89 112.065H292.778L298.628 98.9401H301.628L307.493 112.065H304.305L303.143 109.253ZM302.183 106.95L300.105 101.925L298.02 106.95H302.183Z" fill="#FF6A39"/>
<path d="M322.77 98.9475V112.073H320.28L313.74 104.108V112.073H310.74V98.9475H313.252L319.777 106.913V98.9475H322.777H322.77Z" fill="#FF6A39"/>
<path d="M327.765 98.9475H330.803V112.073H327.765V98.9475Z" fill="#FF6A39"/>
<path d="M347.82 98.9475V112.073H345.33L338.79 104.108V112.073H335.79V98.9475H338.303L344.828 106.913V98.9475H347.828H347.82Z" fill="#FF6A39"/>
<path d="M351.99 105.503C351.99 101.603 355.027 98.7151 359.167 98.7151C363.307 98.7151 366.345 101.58 366.345 105.503C366.345 109.425 363.292 112.29 359.167 112.29C355.042 112.29 351.99 109.403 351.99 105.503ZM363.277 105.503C363.277 103.013 361.515 101.303 359.175 101.303C356.835 101.303 355.072 103.005 355.072 105.503C355.072 108 356.835 109.703 359.175 109.703C361.515 109.703 363.277 108 363.277 105.503Z" fill="#FF6A39"/>
<path d="M97.7624 15.2624C81.1799 0.0673976 56.8199 -4.2076 35.7074 4.3649C18.8099 11.2274 10.0724 24.5324 7.0949 29.9324C-4.5301 51.0524 -0.382601 75.3224 8.8799 89.9999C13.8374 97.8599 23.9624 107.662 29.5799 108.532C31.2824 108.795 32.4149 108.202 33.0674 107.655C35.8574 105.292 33.9749 102.24 31.7924 98.6924C29.7149 95.3249 26.5799 90.2399 24.3299 83.4749C18.7274 66.5999 21.4649 53.5124 24.7499 45.5024C28.8374 35.5274 35.5349 28.7024 41.2799 24.3524C42.7199 27.0599 43.8074 29.4374 44.6099 31.5074C41.5649 32.5574 38.2124 34.4099 36.9899 38.1599C35.8649 41.6324 36.8324 46.4549 40.4099 48.5174C44.2199 50.7149 48.8999 48.7274 50.9999 46.6049C52.7399 44.8499 54.0224 41.8199 53.1899 36.5774C56.9099 36.1724 62.7074 36.2099 65.9624 39.6374C67.0799 40.8149 67.4699 41.7524 68.0624 43.1699C68.7974 44.9324 69.7124 47.1224 72.1574 49.9124C75.8399 54.1124 81.5849 56.4824 89.2724 56.9774C89.4599 58.3799 90.1274 59.6624 91.1924 60.6149C92.2874 61.5899 93.6749 62.1149 95.1299 62.1149C95.2424 62.1149 95.3549 62.1149 95.4674 62.1074C95.5124 62.1074 95.5499 62.0999 95.5949 62.0924C95.5874 62.2574 95.5799 62.4149 95.5649 62.5874C95.1299 66.9074 91.9124 70.3049 88.9199 71.7449C88.3724 72.0074 87.8999 72.1799 87.4274 72.2774C84.0224 72.9974 81.6374 72.6224 79.1099 72.2174C77.4074 71.9474 75.6449 71.6624 73.6949 71.7749C66.3299 72.1649 58.9424 78.4949 57.2249 85.8899C55.2674 94.3349 60.7799 102.675 67.2449 106.545C70.4399 108.457 74.0549 109.417 78.0674 109.417C80.5124 109.417 83.0999 109.065 85.8299 108.345C104.415 103.5 113.28 81.6524 115.582 69.5099C119.37 49.5749 112.537 28.7849 97.7624 15.2549V15.2624ZM46.1624 41.7974C45.5549 42.4049 44.1824 42.7724 43.8224 42.6074C43.5299 42.3974 43.1849 41.1824 43.4774 40.2674C43.7849 39.3149 45.0674 38.6099 46.4774 38.0924C46.7774 40.1699 46.5599 41.3924 46.1549 41.7974H46.1624ZM108.87 68.2424C106.267 81.9449 97.4024 98.2799 84.0299 101.767C82.0499 102.285 76.0274 103.86 70.7474 100.695C66.5099 98.1524 62.6549 92.6474 63.8624 87.4349C65.0099 82.4774 70.1549 78.7949 74.0474 78.5924C74.2049 78.5849 74.3699 78.5774 74.5274 78.5774C75.6149 78.5774 76.7474 78.7574 78.0299 78.9599C80.7749 79.3949 84.1949 79.9349 88.8374 78.9599C89.8424 78.7499 90.8399 78.3974 91.8749 77.8949C96.2324 75.7874 101.595 70.6949 102.345 63.2774C102.877 58.0049 100.8 53.7974 99.5324 51.7874C98.8499 50.6774 97.6124 50.0399 96.2849 50.1224C86.9849 50.7824 80.5874 49.1999 77.2799 45.4199C75.5699 43.4699 74.9774 42.0449 74.3474 40.5374C73.6574 38.8874 72.8774 37.0274 70.8974 34.9424C65.2724 29.0249 56.4749 29.1824 51.3374 29.9174C50.0699 26.5124 48.1499 22.4924 45.3899 17.7599C44.9024 16.9274 44.0924 16.3199 43.1474 16.1024C42.2099 15.8849 41.2049 16.0649 40.4024 16.5974C33.3899 21.2474 23.8724 29.5874 18.4124 42.9224C14.6924 51.9974 11.5724 66.7799 17.8349 85.6349C19.0874 89.4074 20.5649 92.6624 22.0049 95.4374C19.5374 93.0299 16.9199 89.9849 14.6324 86.3699C6.4349 73.3799 2.7674 51.9149 13.0574 33.2324C15.6824 28.4699 23.3849 16.7399 38.2574 10.7024C56.6549 3.2324 78.7049 7.0874 93.1349 20.3024C108.727 34.5824 111.48 54.4349 108.855 68.2499L108.87 68.2424Z" fill="#FF6A39"/>
</g>
<defs>
<clipPath id="clip0_350_459">
<rect width="406.297" height="112.29" fill="white"/>
</clipPath>
</defs>
</svg>
