<svg width="117" height="110" viewBox="0 0 117 110" fill="none" xmlns="http://www.w3.org/2000/svg">
<g clip-path="url(#clip0_350_473)">
<path d="M98.0122 15.2624C81.4297 0.0673976 57.0697 -4.2076 35.9572 4.3649C19.0597 11.2274 10.3222 24.5324 7.34466 29.9324C-4.28034 51.0524 -0.132845 75.3224 9.12966 89.9999C14.0872 97.8599 24.2122 107.662 29.8297 108.532C31.5322 108.795 32.6647 108.202 33.3172 107.655C36.1072 105.292 34.2247 102.24 32.0422 98.6924C29.9647 95.3249 26.8297 90.2399 24.5797 83.4749C18.9772 66.5999 21.7147 53.5124 24.9997 45.5024C29.0872 35.5274 35.7847 28.7024 41.5297 24.3524C42.9697 27.0599 44.0572 29.4374 44.8597 31.5074C41.8147 32.5574 38.4622 34.4099 37.2397 38.1599C36.1147 41.6324 37.0822 46.4549 40.6597 48.5174C44.4697 50.7149 49.1497 48.7274 51.2497 46.6049C52.9897 44.8499 54.2722 41.8199 53.4397 36.5774C57.1597 36.1724 62.9572 36.2099 66.2122 39.6374C67.3297 40.8149 67.7197 41.7524 68.3122 43.1699C69.0472 44.9324 69.9622 47.1224 72.4072 49.9124C76.0897 54.1124 81.8347 56.4824 89.5222 56.9774C89.7097 58.3799 90.3772 59.6624 91.4422 60.6149C92.5372 61.5899 93.9247 62.1149 95.3797 62.1149C95.4922 62.1149 95.6047 62.1149 95.7172 62.1074C95.7622 62.1074 95.7997 62.0999 95.8447 62.0924C95.8372 62.2574 95.8297 62.4149 95.8147 62.5874C95.3797 66.9074 92.1622 70.3049 89.1697 71.7449C88.6222 72.0074 88.1497 72.1799 87.6772 72.2774C84.2722 72.9974 81.8872 72.6224 79.3597 72.2174C77.6572 71.9474 75.8947 71.6624 73.9447 71.7749C66.5797 72.1649 59.1922 78.4949 57.4747 85.8899C55.5172 94.3349 61.0297 102.675 67.4947 106.545C70.6897 108.457 74.3047 109.417 78.3172 109.417C80.7622 109.417 83.3497 109.065 86.0797 108.345C104.665 103.5 113.53 81.6524 115.832 69.5099C119.62 49.5749 112.787 28.7849 98.0122 15.2549V15.2624ZM46.4122 41.7974C45.8047 42.4049 44.4322 42.7724 44.0722 42.6074C43.7797 42.3974 43.4347 41.1824 43.7272 40.2674C44.0347 39.3149 45.3172 38.6099 46.7272 38.0924C47.0272 40.1699 46.8097 41.3924 46.4047 41.7974H46.4122ZM109.12 68.2424C106.517 81.9449 97.6522 98.2799 84.2797 101.767C82.2997 102.285 76.2772 103.86 70.9972 100.695C66.7597 98.1524 62.9047 92.6474 64.1122 87.4349C65.2597 82.4774 70.4047 78.7949 74.2972 78.5924C74.4547 78.5849 74.6197 78.5774 74.7772 78.5774C75.8647 78.5774 76.9972 78.7574 78.2797 78.9599C81.0247 79.3949 84.4447 79.9349 89.0872 78.9599C90.0922 78.7499 91.0897 78.3974 92.1247 77.8949C96.4822 75.7874 101.845 70.6949 102.595 63.2774C103.127 58.0049 101.05 53.7974 99.7822 51.7874C99.0997 50.6774 97.8622 50.0399 96.5347 50.1224C87.2347 50.7824 80.8372 49.1999 77.5297 45.4199C75.8197 43.4699 75.2272 42.0449 74.5972 40.5374C73.9072 38.8874 73.1272 37.0274 71.1472 34.9424C65.5222 29.0249 56.7247 29.1824 51.5872 29.9174C50.3197 26.5124 48.3997 22.4924 45.6397 17.7599C45.1522 16.9274 44.3422 16.3199 43.3972 16.1024C42.4597 15.8849 41.4547 16.0649 40.6522 16.5974C33.6397 21.2474 24.1222 29.5874 18.6622 42.9224C14.9422 51.9974 11.8222 66.7799 18.0847 85.6349C19.3372 89.4074 20.8147 92.6624 22.2547 95.4374C19.7872 93.0299 17.1697 89.9849 14.8822 86.3699C6.68466 73.3799 3.01715 51.9149 13.3072 33.2324C15.9322 28.4699 23.6347 16.7399 38.5072 10.7024C56.9047 3.2324 78.9547 7.0874 93.3847 20.3024C108.977 34.5824 111.73 54.4349 109.105 68.2499L109.12 68.2424Z" fill="#FF6A39"/>
</g>
<defs>
<clipPath id="clip0_350_473">
<rect width="116.61" height="109.417" fill="white" transform="translate(0.25)"/>
</clipPath>
</defs>
</svg>
