<svg width="48" height="48" viewBox="0 0 48 48" fill="none" xmlns="http://www.w3.org/2000/svg">
<path fill-rule="evenodd" clip-rule="evenodd" d="M24.0001 2C24.7613 2 25.4565 2.43214 25.7935 3.11475L31.5086 14.6929L44.2893 16.561C45.0424 16.6711 45.6678 17.1991 45.9025 17.9231C46.1373 18.6472 45.9408 19.4417 45.3955 19.9727L36.1491 28.9787L38.3313 41.7019C38.46 42.4523 38.1515 43.2107 37.5355 43.6581C36.9196 44.1056 36.103 44.1645 35.4292 43.8101L24.0001 37.7997L12.571 43.8101C11.8971 44.1645 11.0805 44.1056 10.4646 43.6581C9.84863 43.2107 9.54014 42.4523 9.66884 41.7019L11.851 28.9787L2.60459 19.9727C2.05936 19.4417 1.86281 18.6472 2.09757 17.9231C2.33232 17.1991 2.95768 16.6711 3.7108 16.561L16.4915 14.6929L22.2066 3.11475C22.5436 2.43214 23.2388 2 24.0001 2ZM24.0001 8.51851L19.6135 17.4052C19.3224 17.9949 18.76 18.4039 18.1093 18.499L8.29688 19.9332L15.3955 26.8473C15.8673 27.3068 16.0826 27.969 15.9713 28.6181L14.2964 38.3834L23.0692 33.7699C23.6519 33.4634 24.3482 33.4634 24.931 33.7699L33.7037 38.3833L32.0288 28.6181C31.9175 27.969 32.1328 27.3068 32.6046 26.8473L39.7032 19.9332L29.8908 18.499C29.2401 18.4039 28.6777 17.9949 28.3866 17.4052L24.0001 8.51851Z" fill="#FFF4E0"/>
</svg>
