<svg width="56" height="56" viewBox="0 0 56 56" fill="none" xmlns="http://www.w3.org/2000/svg">
<g clip-path="url(#clip0_1284_820)">
<path d="M14.7875 16.3406L11.9328 24.5H44.0672L41.2125 16.3406C40.7203 14.9406 39.3969 14 37.9094 14H18.0906C16.6031 14 15.2797 14.9406 14.7875 16.3406ZM4.33125 25.025L8.18125 14.0328C9.65781 9.82188 13.6281 7 18.0906 7H37.9094C42.3719 7 46.3422 9.82188 47.8188 14.0328L51.6688 25.025C54.2062 26.075 56 28.5797 56 31.5V47.25H0V31.5C0 28.5797 1.79375 26.075 4.33125 25.025Z" fill="#FF6A39"/>
<path d="M21 0H35C36.9359 0 38.5 1.56406 38.5 3.5V7H17.5V3.5C17.5 1.56406 19.0641 0 21 0Z" fill="#FFF4E0"/>
<path d="M10.5 47.25V52.5C10.5 54.4359 8.93594 56 7 56H3.5C1.56406 56 0 54.4359 0 52.5V47.25H10.5Z" fill="#73381D"/>
<path d="M45.5 47.25H56V52.5C56 54.4359 54.4359 56 52.5 56H49C47.0641 56 45.5 54.4359 45.5 52.5V47.25Z" fill="#73381D"/>
<path d="M10.5 38.5C12.433 38.5 14 36.933 14 35C14 33.067 12.433 31.5 10.5 31.5C8.567 31.5 7 33.067 7 35C7 36.933 8.567 38.5 10.5 38.5Z" fill="#FFF4E0"/>
<path d="M45.5 38.5C47.433 38.5 49 36.933 49 35C49 33.067 47.433 31.5 45.5 31.5C43.567 31.5 42 33.067 42 35C42 36.933 43.567 38.5 45.5 38.5Z" fill="#FFF4E0"/>
</g>
<defs>
<clipPath id="clip0_1284_820">
<rect width="56" height="56" fill="white"/>
</clipPath>
</defs>
</svg>
